<svg width="547" height="353" viewBox="0 0 547 353" fill="none" xmlns="http://www.w3.org/2000/svg">
<g clip-path="url(#clip0)">
<path d="M55.2999 352.1C55.3999 352.1 55.3999 352.1 55.2999 352.1L507.9 352.2C514.8 334.4 519.5 315.6 521.9 296.6C525 272.1 525.2 246.3 517.7 222.7C510.3 199.4 495.6 181.9 477.8 167.4C460.3 153.2 440.9 141.9 424 126.7C405.6 110.2 388.6 91.8999 368 78.5999C329.1 53.4999 283 43.9999 238.3 45.4999C193.4 47.0999 144.4 57.5999 107.5 86.9999C72.0999 115.2 50.6999 158.9 38.4999 204.1C31.3999 230.6 26.4999 258.6 30.0999 286.3C33.0999 310.1 42.3999 332.8 55.2999 352.1Z" fill="#F7F9FA"/>
<path d="M541.5 263.7C534.7 268.5 527.8 273.3 521.8 278.8C515.7 284.3 510.8 290.5 507.1 297.4C499.9 310.7 495.4 325 488.2 338.3C485.6 343.1 482.6 347.8 479.1 352.2H499.5C506.4 347.5 512.5 342 517.5 335.9C522.6 329.5 526.5 322.6 529.2 315.2C532 307.6 533.5 299.7 535.5 291.8C537.7 283.1 540.6 274.6 546.3 267.1C547.9 264.9 543.8 262 541.5 263.7Z" fill="#EDEFF2"/>
<path d="M544.1 262.1C537.5 268 532.5 275.2 528.3 282.7C524 290.4 520.5 298.4 516.9 306.4C513.2 314.5 509.2 322.5 504.1 329.9C498.5 337.9 491.8 345.2 484.8 352.1H486.6C492.4 346.3 498 340.3 502.8 333.8C508.3 326.5 512.6 318.5 516.5 310.4C520.3 302.4 523.7 294.3 527.8 286.5C531.8 278.8 536.6 271.4 542.9 265.1C543.7 264.3 544.5 263.6 545.3 262.9C545.7 262.4 544.7 261.6 544.1 262.1Z" fill="white"/>
<path d="M522.9 213.4C515.2 220.3 505.6 225.5 497.4 232C488.9 238.7 483 246.9 479.4 256.2C475.8 265.6 474.2 275.4 472.8 285.2C471.2 296.2 469.5 307.3 467.7 318.3C465.8 329.6 463.8 341 461.6 352.2H471.7C471.9 351.8 472.1 351.3 472.4 350.9C473.5 348.6 474.7 346.4 475.8 344.1C478.1 339.7 480.4 335.3 482.7 330.8C487.3 322 491.9 313.1 496 304.1C500.2 295 504 285.7 506.9 276.2C509.9 266.7 512 257 515 247.4C518.3 236.7 523.1 226.4 528.4 216.2C529.7 213.7 525.3 211.3 522.9 213.4Z" fill="#EDEFF2"/>
<path d="M527.8 210.5C521.1 220.3 514.3 230.1 507.6 240C504.4 244.7 501.1 249.4 498.5 254.5C495.9 259.5 494.1 264.8 492.3 270.1C488.6 281.2 484.9 292.3 481.2 303.4C477.5 314.5 473.9 325.7 470.4 336.8C468.8 341.9 467.1 347.1 465.5 352.2H466.8C468 348.6 469.1 344.9 470.3 341.3C473.8 330.2 477.4 319.1 481.1 308C484.7 296.9 488.4 285.7 492.1 274.6C493.9 269.2 495.6 263.8 497.9 258.5C500.2 253.4 503.2 248.6 506.3 243.9C512.9 234.1 519.7 224.4 526.4 214.6C527.2 213.4 528.1 212.2 528.9 211C529.4 210.4 528.3 209.9 527.8 210.5Z" fill="white"/>
<path d="M408.2 352.1V284L350.6 291.7V352.1H408.2Z" fill="#B9EDE6"/>
<path d="M490.3 352.1C488.3 336.1 485.2 317.3 481.3 309.1C467.8 280.7 415.8 254.8 415.8 254.8L409.2 261.9C409.2 261.9 396.8 287.6 393.2 321.3C392 332.9 391.2 343.4 390.6 352.1H490.3Z" fill="white"/>
<path d="M365.6 352.1C364.8 344.3 364.1 336.5 364.1 331.2C363.9 316.5 360.6 272.8 360.6 272.8C360.6 272.8 355.1 271.3 345.5 275.7C335.9 280.1 312.2 299.1 301.9 318.2C297.3 326.7 292.3 340.1 288.3 352.1H365.6Z" fill="white"/>
<path d="M372.2 141.8C372.2 141.8 361.9 135.3 340 139.9C318.2 144.5 305.2 170.2 301.3 195.7C297.4 221.2 293.2 251.6 305.5 269.7C317.8 287.8 324.4 281.9 324.4 281.9C324.4 281.9 331.8 280.1 333.8 279.9C335.8 279.7 335.3 275.6 335.3 275.6C335.3 275.6 336.8 278.6 338.7 278.9C340.6 279.2 357.5 273.5 364.8 272.5C372.1 271.4 401.6 267 405.9 266.5C410.2 266 416.6 264 416.6 264C416.6 264 420.6 262.9 423 262.3C425.3 261.7 430.8 257.9 433.7 255.5C436.6 253.1 434.9 248.5 432.5 241.5C430.2 234.5 422.5 220.9 421.1 203C419.7 185.1 419.3 164.1 399.4 150.7C383.4 139.8 372.2 141.8 372.2 141.8Z" fill="#012C6D"/>
<path d="M353.6 168C353.6 168 346.7 164.2 335.7 166.3C332.9 166.8 330.5 167.8 328.3 169C322.1 172.5 318.1 178.9 317.3 185.9C316.8 190.5 316.3 195.6 316.4 197.1C316.7 200 316.6 212.1 318.1 218.5C319.6 224.9 325.3 246.5 327.5 249.6C330.4 253.6 333 256 341.6 254.8C348.1 254.2 350.5 253.6 350.5 253.6L360.4 272.9L362.5 303.1C362.5 303.1 366 309.3 377.7 307.5C389.4 305.8 396.8 298.9 396.8 298.9L408.1 266.2C408.1 266.2 393.3 251 390.8 244.1C388.3 237.2 387.1 219.2 387.1 219.2C387.1 219.2 395.1 214.1 392.4 204.4C392.4 204.4 390.3 196.5 383.9 198C377.5 199.5 376.9 207.2 376.9 207.2C376.9 207.2 353.6 203.6 353.6 168Z" fill="#F7C1C1"/>
<path d="M339.2 196.7C337.2 194.8 334.4 194.2 331.9 194.9C331.3 195.1 330.7 195.3 330.3 195.8C330 196.3 330 196.9 330.4 197.3C330.8 197.8 331.4 197.8 331.9 197.7C332.6 197.6 333.3 197.4 334 197.2C335.6 196.8 337.3 196.8 338.8 197.7C338.9 197.8 339.2 197.8 339.2 197.6C339.3 197.4 339.3 197.3 339.3 197.1C339.3 197 339.3 196.8 339.2 196.7Z" fill="#012C6D"/>
<path d="M319.1 195.7C318.3 195.4 317.4 195.2 316.5 195.2C316.2 195.2 316 195.3 315.9 195.5C315.8 195.7 315.7 195.9 315.7 196.1C315.6 196.5 315.5 197 315.4 197.4C315.4 197.6 315.6 197.7 315.8 197.7C315.9 197.7 315.9 197.8 316 197.8C316.9 197.7 317.9 197.8 318.8 198C319.2 198.1 319.7 198.2 320.1 198C320.5 197.9 320.7 197.5 320.7 197.2C320.8 196.4 319.8 195.9 319.1 195.7Z" fill="#012C6D"/>
<path d="M318.2 203.3C316 203.5 316.5 208.3 318.7 208C320.9 207.8 320.4 203.1 318.2 203.3Z" fill="#012C6D"/>
<path d="M326.2 206.8C326.2 206.8 328.1 225.4 328 226.9C327.9 228.5 326.6 228.8 325.3 228.8C324 228.8 317.5 229.1 316.6 227.1C315.7 225.1 321.4 208.7 322.1 206.1C322.8 203.5 325.4 201.7 326.2 206.8Z" fill="#E8B1B1"/>
<path d="M351.6 211.5C350.1 210.7 348.4 211.1 347 211.8C345.9 212.3 344.9 213.2 344 214.1C342.8 215.1 341.8 216.5 341.1 218C340.5 219.4 340.9 221 342.5 221.4C344.1 221.8 345.9 221.6 347.5 221.2C350.3 220.4 353.6 218.5 353.6 215.1C353.6 213.7 352.9 212.2 351.6 211.5Z" fill="#E8B1B1"/>
<path d="M338.1 232.7C338.1 232.7 333.5 235.3 330.1 235.8C326.7 236.4 324.4 236.4 324.4 236.4C324.4 236.4 325.1 239.5 326.5 240.9C327.9 242.3 331.2 241.8 332.8 241.1C335.6 239.8 337.9 237.3 338.1 232.7Z" fill="white"/>
<path d="M380.4 225.5C380.4 225.5 376.1 242.3 366.7 247.2C357.3 252.1 350.6 253.5 350.6 253.5L354.4 260.9C354.4 260.9 368.4 255.6 373.6 248C378.8 240.3 380.4 225.5 380.4 225.5Z" fill="#E8B1B1"/>
<path d="M222.9 349.6C222.9 349.6 222.2 335.6 217.6 328.7C212.9 321.8 181.2 301.1 170.7 296.8C160.2 292.5 139.8 285.6 139.8 285.6L93 267.1C93 267.1 84.3 273.6 73.6 280.4C62.9 287.2 48.8 298.9 35.8 305.1C22.8 311.3 15.1 320.1 8.5 331.3C1.9 342.5 0.5 352.1 0.5 352.1H222.9V349.6Z" fill="#B9EDE6"/>
<path d="M187.4 172.4C187.4 172.4 188.9 176.1 189.6 177.9C190.3 179.7 189.3 181.7 189.3 183C189.3 184.3 190.4 193.9 189.5 198.9C188.6 203.9 187.4 206.9 187.4 212.2C187.4 217.5 188.9 230.6 186.2 240.1C183.5 249.6 178.4 265 173.5 267.6C168.6 270.2 161.4 269.9 157.9 269.8C154.4 269.7 151.4 269.1 151.4 269.1C151.4 269.1 146.4 289.8 145.6 291.4C144.8 293 139.6 296.7 130 296.9C120.4 297.1 105.9 290.4 100.7 282.1C95.4 273.8 93 267.1 93 267.1C93 267.1 103.4 249.5 105.9 242.3C108.4 235.1 107.4 228.3 105.5 223.4C103.6 218.5 99.9 194.7 111.3 192.9C122.7 191.1 127.3 199 127.3 199C127.3 199 128.6 179.2 138.1 176.5C147.5 173.8 177.8 162 187.4 172.4Z" fill="#F7C1C1"/>
<path d="M162.3 204.4C159.3 204.1 158.7 209.9 161.7 210.2C164.7 210.5 165.3 204.7 162.3 204.4Z" fill="#012C6D"/>
<path d="M184.7 203.9C182.2 203.5 181.4 208.6 183.9 209C186.4 209.4 187.2 204.3 184.7 203.9Z" fill="#012C6D"/>
<path d="M165.2 197.2C163.2 196.1 160.7 196.1 158.7 197.3C158.3 197.5 158.1 198.1 158.4 198.6C158.7 199 159.2 199.2 159.7 198.9C160.2 198.6 160.3 198.5 160.9 198.4C161.1 198.3 161.3 198.3 161.5 198.3C161.6 198.3 161.6 198.3 161.7 198.3C161.8 198.3 161.9 198.3 162.1 198.3C162.3 198.3 162.6 198.3 162.8 198.3C162.8 198.3 162.8 198.3 162.9 198.3C162.9 198.3 162.9 198.3 163 198.3C163.1 198.3 163.2 198.3 163.3 198.4C163.5 198.5 163.8 198.5 164 198.6H164.1C164.1 198.6 164.1 198.6 164.2 198.6C164.3 198.7 164.4 198.7 164.5 198.8C164.9 199 165.5 198.9 165.8 198.5C165.7 198.1 165.6 197.5 165.2 197.2Z" fill="#012C6D"/>
<path d="M188.6 197C187.9 196.1 186.6 196.1 185.6 196.1C184.4 196.1 183.2 196.4 182.3 197.3C182 197.7 181.9 198.3 182.3 198.6C182.7 198.9 183.3 199 183.6 198.6C183.7 198.5 183.7 198.4 183.8 198.4C183.7 198.5 183.9 198.3 183.9 198.3C184 198.3 184.1 198.2 184.1 198.2H184.2C184.3 198.2 184.4 198.1 184.5 198.1C184.5 198.1 184.7 198.1 184.8 198.1C185 198.1 185.2 198.1 185.5 198.1C185.7 198.1 185.9 198.1 186.2 198.1C186.3 198.1 186.4 198.1 186.5 198.1H186.7C186.8 198.1 186.8 198.1 186.8 198.1L187 198.2C187 198.2 187.1 198.2 187.1 198.3L187.2 198.4C187.5 198.8 188.2 198.7 188.5 198.4C188.9 197.9 188.9 197.4 188.6 197Z" fill="#012C6D"/>
<path d="M179 208.5C179 208.5 183.3 230.2 183.6 233.2C183.9 236.2 178.5 236.1 175.9 236.4C173.3 236.7 170.7 235.9 170.7 233.2C170.7 230.6 173.2 212.2 173.6 208.7C174 205.2 177.8 204.2 179 208.5Z" fill="#E8B1B1"/>
<path d="M180 244.7C180.1 244.3 179.9 243.9 179.4 243.9C177.5 244 173 244.2 170.1 244.3C167.4 244.4 164.6 244.1 163.2 244C162.8 244 162.5 244.4 162.6 244.7C163.2 246.3 165 249.8 169.5 250.6C175.4 251.6 177.5 248.7 178.4 247.7C179 247 179.6 245.6 180 244.7Z" fill="white"/>
<path d="M189.3 183.1C189.3 183.1 189.6 176.6 185.4 173.8C181.3 171 171.2 171.3 164.5 174.2C157.8 177.1 153.9 178.3 146.8 179C139.7 179.8 136.3 182.3 132.8 195.4C129.3 208.5 125.9 211.1 124.4 212.2C122.9 213.3 122.2 205 118.1 201.1C114 197.2 110.3 198.5 107.9 201.4C105.5 204.2 105.4 214.4 107.9 220.5C110.4 226.5 113.2 227 113.2 227C113.2 227 107.9 240.6 106.5 243.6C105.1 246.6 102.5 249.2 102.5 249.2C102.5 249.2 100.6 218.2 97.9 203.9C95.2 189.6 90.9 171.3 103.9 159.4C113.5 150.6 122.2 152.3 124.3 152C126.4 151.7 128.9 143.9 145.7 142.2C162.5 140.5 180.7 141.9 186.1 150.2C191.5 158.6 193.8 162.8 192.8 171.9C192 181 189.3 183.1 189.3 183.1Z" fill="#012C6D"/>
<path d="M119.7 230.1C119.7 230.1 126.1 251.8 128.9 255C131.7 258.3 151.4 269.1 151.4 269.1L149.7 275.9C149.7 275.9 132.7 267.3 126.2 259.9C119.7 252.6 120.5 240.4 119.7 230.1Z" fill="#E8B1B1"/>
<path d="M334.2 201.7C331.9 201.9 332.4 206.7 334.7 206.5C337 206.3 336.5 201.5 334.2 201.7Z" fill="#012C6D"/>
<path d="M288 219C288.2 218.7 288.3 218.3 288 218C287.8 217.8 287.3 217.7 287 218C283.9 222 282.2 226.8 281.7 231.8C281.4 234.5 281.4 237.3 281.7 240C281.9 242.5 282.2 245 282.9 247.4C283.6 250 284.6 252.5 286.2 254.7C286.4 255 286.8 255.1 287.1 254.9C287.4 254.7 287.6 254.3 287.3 254C284.6 250.2 283.6 245.4 283.1 240.8C282.6 235.7 282.7 230.6 284.4 225.7C285.2 223.4 286.4 221 288 219Z" fill="#5BD7C5"/>
<path d="M291.9 248.6C288.3 243.2 288.1 236.3 288.9 230.1C289.1 228.6 289.5 227 290.5 225.8C291.1 225.1 290.1 224.2 289.5 224.8C288.5 225.9 287.9 227.4 287.7 228.8C287.4 230.5 287.3 232.2 287.2 233.8C287 237.3 287.2 240.8 288.3 244.2C288.9 246 289.7 247.7 290.7 249.3C291.2 250.1 292.4 249.4 291.9 248.6Z" fill="#5BD7C5"/>
<path d="M387.3 219.9C387.3 219.9 387.1 245.7 389.7 257.4C392.3 269.1 393.3 270.9 393.3 270.9L402.4 269.1C402.4 269.1 396.5 254.9 397 240.1C397.5 225.3 387.3 219.9 387.3 219.9Z" fill="#012C6D"/>
<path d="M339 37.5C346 37.5 351.7 43.2 351.7 50.2V110.6V122.4C351.7 123.6 350.4 124.2 349.5 123.6L348.1 122.7L334.7 115.5C333.4 114.8 332 114.5 330.6 114.5H248.2C241.2 114.5 235.5 108.8 235.5 101.8V50.2C235.5 43.2 241.2 37.5 248.2 37.5H339Z" fill="#5BD7C5"/>
<path d="M182.1 1.5C175.1 1.5 169.4 7.2 169.4 14.2V74.6V86.4C169.4 87.6 170.7 88.2 171.6 87.6L173 86.7L186.4 79.5C187.7 78.8 189.1 78.5 190.5 78.5H272.9C279.9 78.5 285.6 72.8 285.6 65.8V14.2C285.6 7.2 279.9 1.5 272.9 1.5H182.1Z" stroke="#FFD968" stroke-width="3" stroke-miterlimit="10"/>
</g>
<defs>
<clipPath id="clip0">
<rect width="546.1" height="352.2" fill="white" transform="translate(0.5)"/>
</clipPath>
</defs>
</svg>
